<svg xmlns="http://www.w3.org/2000/svg" viewBox="0 0 57 57" width="512" height="512"><g fill="#599141"><path d="M26.5 32.338a4.051 4.051 0 0 0 4.047 4.046c.682 0 2.101 0 6.197-8.408a1.376 1.376 0 0 0-.264-1.572 1.375 1.375 0 0 0-1.573-.263C26.5 30.239 26.5 31.657 26.5 32.338zm3.958 2.044a2.047 2.047 0 0 1-1.956-1.955c.245-.423 1.693-1.629 5.603-3.647-2.017 3.908-3.224 5.357-3.647 5.602zM27.5 25h1a1 1 0 1 0 0-2h-1a1 1 0 1 0 0 2zm1 17h-1a1 1 0 1 0 0 2h1a1 1 0 1 0 0-2zm-9-10h-1a1 1 0 1 0 0 2h1a1 1 0 1 0 0-2zm17 1a1 1 0 0 0 1 1h1a1 1 0 1 0 0-2h-1a1 1 0 0 0-1 1z"/><path d="M51.5 1V0h-46v1c0 6.843 6.929 13.007 16 15.173v4.559c-4.751 2.511-8 7.499-8 13.237 0 2.146.462 4.184 1.28 6.031h-3.421A3.858 3.858 0 0 0 8.2 41.644a3.858 3.858 0 0 0-.464 3.529L10.581 53h4.735a2.996 2.996 0 0 1-2.816 2 1 1 0 1 0 0 2 5.01 5.01 0 0 0 4.899-4h23.202a5.009 5.009 0 0 0 4.899 4 1 1 0 1 0 0-2 2.996 2.996 0 0 1-2.816-2h4.735l2.846-7.827c.43-1.181.256-2.5-.464-3.529A3.861 3.861 0 0 0 46.642 40h-4.484a14.87 14.87 0 0 0 1.28-6.031c0-5.713-3.22-10.685-7.938-13.207v-4.589c9.071-2.166 16-8.33 16-15.173zM7.567 2h41.865c-.674 5.072-6.38 10.35-14.489 12.254l-.651.138c-.805.17-1.618.297-2.434.395-.251.03-.501.06-.756.083a27.985 27.985 0 0 1-5.208 0 26.466 26.466 0 0 1-.756-.083 27.842 27.842 0 0 1-2.434-.395l-.651-.138C13.948 12.35 8.242 7.072 7.567 2zm33.519 40h5.556c.614 0 1.168.288 1.521.791.352.503.434 1.121.224 1.698L46.019 51H11.981l-2.367-6.511a1.831 1.831 0 0 1 .224-1.698 1.832 1.832 0 0 1 1.52-.791h4.493c.018.029.039.055.057.083.119.183.243.362.369.54.116.162.236.32.357.477.202.261.411.514.63.76.135.153.27.305.411.452a14.82 14.82 0 0 0 1.82 1.609c.093.07.184.141.279.209.217.155.437.305.662.449.065.042.132.08.198.121.417.258.848.495 1.291.711.096.047.192.095.29.14.24.111.481.219.728.317.123.049.25.091.374.137a15.047 15.047 0 0 0 1.776.535c.17.039.339.083.512.116.387.077.779.134 1.173.18.12.014.241.024.362.035.441.04.883.067 1.33.067s.889-.027 1.33-.067c.121-.011.241-.021.362-.035.394-.046.786-.103 1.173-.18.173-.034.341-.077.512-.116a14.76 14.76 0 0 0 1.776-.535c.125-.046.251-.088.374-.137.247-.098.488-.206.728-.317.097-.045.193-.093.29-.14.443-.217.873-.453 1.291-.711.066-.041.133-.079.198-.121.225-.144.445-.293.662-.449.095-.068.187-.14.281-.21.337-.254.663-.521.978-.802.119-.106.238-.212.354-.322.166-.158.328-.318.487-.484.141-.147.276-.299.411-.452a15.761 15.761 0 0 0 1.356-1.777c.014-.028.035-.054.053-.083zm.352-8.031c0 2.22-.562 4.311-1.55 6.14l-.113.193c-.078.14-.166.273-.249.41-.207.338-.427.664-.661.978-.07.094-.138.189-.21.281-.137.174-.278.343-.423.508-.075.086-.153.169-.23.253-.301.326-.615.637-.946.93-.038.033-.074.069-.112.102-.187.162-.379.316-.574.467l-.167.125a13.14 13.14 0 0 1-1.965 1.212l-.177.085c-.398.192-.807.362-1.224.512-.084.03-.166.063-.25.092a14.033 14.033 0 0 1-1.141.323c-.182.043-.363.087-.547.122a13.08 13.08 0 0 1-.938.144c-.114.013-.229.024-.344.035-.379.033-.761.058-1.148.058a13.208 13.208 0 0 1-1.492-.093 12.62 12.62 0 0 1-.938-.144c-.184-.036-.366-.079-.548-.122a12.426 12.426 0 0 1-1.141-.323c-.084-.028-.166-.062-.25-.092-.417-.151-.825-.32-1.224-.512-.059-.028-.119-.056-.177-.085a13.058 13.058 0 0 1-1.965-1.212c-.056-.042-.112-.082-.167-.125a12.845 12.845 0 0 1-.574-.467c-.038-.033-.074-.068-.111-.101a12.992 12.992 0 0 1-.947-.931c-.077-.084-.155-.167-.23-.253a13.709 13.709 0 0 1-.423-.508c-.072-.092-.141-.187-.21-.281-.234-.314-.455-.64-.661-.978-.083-.137-.171-.27-.249-.41l-.113-.193a12.89 12.89 0 0 1-1.55-6.14c0-5.188 3.069-9.661 7.48-11.733.421-.197.848-.372 1.282-.522l.026-.01a12.878 12.878 0 0 1 7.048-.375l.003.001c.458.105.912.236 1.359.391l.061.022c.426.15.846.324 1.259.52 4.379 2.086 7.421 6.542 7.421 11.706zM33.5 19.881c-.048-.017-.096-.029-.144-.045a14.654 14.654 0 0 0-1.41-.412 15.62 15.62 0 0 0-.72-.159 14.504 14.504 0 0 0-.806-.123c-.181-.024-.359-.053-.542-.071A15.003 15.003 0 0 0 28.469 19c-.47 0-.938.027-1.402.071-.18.017-.357.046-.535.069-.269.036-.538.073-.804.123a15 15 0 0 0-.706.153 14.881 14.881 0 0 0-1.396.403c-.042.014-.084.024-.125.039v-3.28c.806.135 1.625.24 2.455.31l.06.006c.819.068 1.648.106 2.484.106s1.665-.038 2.485-.106l.06-.006c.83-.07 1.649-.175 2.455-.31v3.303z"/><path d="M27.489 12h.011a1 1 0 1 0 0-2h-.011c-2.508 0-4.804-.38-6.823-1.129a.999.999 0 1 0-.695 1.875c2.243.832 4.772 1.254 7.518 1.254zM16.5 4.973A1.006 1.006 0 0 0 15.473 4a1.002 1.002 0 0 0-.973 1.027c.036 1.321.669 2.594 1.783 3.582a.997.997 0 0 0 1.412-.084 1 1 0 0 0-.084-1.412c-.696-.617-1.09-1.378-1.111-2.14z"/></g></svg>