<?xml version="1.0" encoding="utf-8"?>
<!-- Generator: Adobe Illustrator 21.0.0, SVG Export Plug-In . SVG Version: 6.00 Build 0)  -->
<svg version="1.0" id="Слой_1" xmlns="http://www.w3.org/2000/svg" xmlns:xlink="http://www.w3.org/1999/xlink" x="0px" y="0px"
	 viewBox="0 0 1080 810" enable-background="new 0 0 1080 810" xml:space="preserve">
<path fill="#1994E0" d="M1053.3,809.1H26c-13.8,0-25-11.3-25-25v-758c0-13.8,11.3-25,25-25h1027.3c13.8,0,25,11.3,25,25v758
	C1078.3,797.9,1067.1,809.1,1053.3,809.1z"/>
<path fill="#FFFFFF" stroke="#0071BC" stroke-miterlimit="10" d="M159,98.5H45c-8.3,0-15-6.8-15-15V50.1c0-8.3,6.8-15,15-15h114
	c8.3,0,15,6.8,15,15v33.3C174,91.7,167.3,98.5,159,98.5z"/>
</svg>
