<svg xmlns="http://www.w3.org/2000/svg" viewBox="0 0 480 480" width="512" height="512"><path d="M429.688 90.304l-40-40a8 8 0 0 0-10.04-1.04L335.2 78.4l-47.928-20-7.352-51.536A7.999 7.999 0 0 0 272 0h-64a7.999 7.999 0 0 0-7.92 6.864L192.72 58.4l-47.88 20-44.456-29.12a8 8 0 0 0-10.04 1.04l-40 40a8 8 0 0 0-1.024 10.056l29.6 44.96-4.96 11.464 14.688 6.352 6.68-15.424a8 8 0 0 0-.664-7.584l-28.416-43.12L97.04 66.232l42.576 27.888a8.088 8.088 0 0 0 7.48.688l56-23.448a7.999 7.999 0 0 0 4.8-6.248L214.936 16h50.128l7.016 49.136a7.999 7.999 0 0 0 4.8 6.248l56 23.432a8.072 8.072 0 0 0 7.472-.688l42.592-27.872 31.008 31.008-20.8 35.2a8 8 0 0 0-.608 6.896l8.872 23.432 14.968-5.664-7.512-19.832 22.04-37.264a8 8 0 0 0-1.224-9.728zm-104.032 216.04l-24-24A8 8 0 0 0 296 280H184a8 8 0 0 0-5.656 2.344l-24 24A8 8 0 0 0 152 312v160a8 8 0 0 0 8 8h160a8 8 0 0 0 8-8V312a8 8 0 0 0-2.344-5.656zM267.312 296h25.376L264 324.688 251.312 312l16-16zm-14.624 40l-10.344 10.344A7.95 7.95 0 0 0 240 352a7.998 7.998 0 0 0-2.344-5.6L227.312 336 240 323.312 252.688 336zm-8-40L240 300.688 235.312 296h9.376zm-32 0l16 16L216 324.688 187.312 296h25.376zM209 464h-41V315.312l8-8 34.344 34.344 13.2 13.2L209 464zm16.144 0l14.784-110.944a7.2 7.2 0 0 0 .072-1.016c.002.513.055 1.025.16 1.528L262.24 464h-37.096zM312 464h-33.44l-21.872-109.368 12.968-12.976L304 307.312l8 8V464z" fill="#599141"/><path d="M296 104h-72c-26.499.026-47.974 21.501-48 48v48c.04 35.33 28.67 63.96 64 64 35.33-.04 63.96-28.67 64-64v-88a8 8 0 0 0-8-8zm-8 96c0 26.51-21.49 48-48 48s-48-21.49-48-48v-32h64a47.75 47.75 0 0 0 32-12.32V200zm-32-48h-64c0-17.673 14.327-32 32-32h64c0 17.673-14.327 32-32 32zm221.656 186.344l-24-24A8 8 0 0 0 448 312h-64a8 8 0 0 0-5.656 2.344l-24 24A8 8 0 0 0 352 344v128a8 8 0 0 0 8 8h112a8 8 0 0 0 8-8V344a8 8 0 0 0-2.344-5.656zM464 464h-40V344h-16v120h-40V347.312l16-16 18.344 18.344L408 344l5.656-5.656L403.312 328h26.008l-10.808 10.168L424 344l5.488 5.832 19.072-17.96 15.44 15.44V464zm-40-288h-15.736c-22.02.044-39.881 17.844-40 39.864l-.128 40.056c-.088 26.465 21.294 47.991 47.76 48.08h.16c26.457-.031 47.9-21.463 47.944-47.92V216c-.026-22.08-17.92-39.974-40-40zm-39.736 39.92c.043-13.121 10.616-23.776 23.736-23.92.001 13.152-10.584 23.855-23.736 24v-.08zM448 256.056c-.031 17.62-14.3 31.9-31.92 31.944-17.629 0-31.92-14.291-31.92-31.92V256l.08-24A39.998 39.998 0 0 0 416 216a40 40 0 0 0 32 16v24.056zM424 192c13.255 0 24 10.745 24 24-13.255 0-24-10.745-24-24zM125.656 338.344l-24-24A8 8 0 0 0 96 312H32a8 8 0 0 0-5.656 2.344l-24 24A8 8 0 0 0 0 344v128a8 8 0 0 0 8 8h112a8 8 0 0 0 8-8V344a8 8 0 0 0-2.344-5.656zM112 464H72V344H56v120H16V347.312l16-16 18.344 18.344L56 344l5.656-5.656L51.312 328H77.32l-10.808 10.168L72 344l5.488 5.832 19.072-17.96 15.44 15.44V464zM72 176H56.264c-22.02.044-39.881 17.844-40 39.864l-.128 40.056c-.088 26.465 21.294 47.991 47.76 48.08h.16c26.457-.031 47.9-21.463 47.944-47.92V216c-.026-22.08-17.92-39.974-40-40zm0 16a24 24 0 0 1 22.528 16H80a24 24 0 0 1-22.528-16H72zm-32 6.464v1.464a7.887 7.887 0 0 1-2.36 5.664 7.615 7.615 0 0 1-3.768 2A24.01 24.01 0 0 1 40 198.464zm56 57.616c-.044 17.611-14.309 31.876-31.92 31.92-17.629 0-31.92-14.291-31.92-31.92V256l.104-32.064a23.786 23.786 0 0 0 16.688-6.968 24.38 24.38 0 0 0 3.336-4.224A39.816 39.816 0 0 0 80 224h16v32.08z" fill="#599141"/></svg>